<svg aria-hidden="true" style="position:absolute;width:0;height:0" xmlns="http://www.w3.org/2000/svg" overflow="hidden">
  <defs>

    <!-- Form -->
    <symbol id="icon-take-order-option-triangle" viewBox="0 0 45 32">
      <path
        d="M24.9 28.873c-1.281 1.602-3.718 1.602-4.999 0L1.614 5.998C-.061 3.903 1.431.8 4.113.8h36.573c2.683 0 4.174 3.103 2.5 5.198L24.899 28.873z" />
    </symbol>

    <!-- Menu -->
    <symbol id="icon-icon-menu-close-cross" viewBox="0 0 32 32">
      <path stroke-linecap="round" stroke-width="3.5556"
        d="M29.63 30.222 2.371 1.778m27.259 0L2.371 30.222" />
    </symbol>
    
    <symbol id="icon-menu-open-burger" viewBox="0 0 48 32">
      <path
        d="M45.467 13.333H2.534c-1.399 0-2.533.681-2.533 1.52v.16c0 .839 1.134 1.52 2.533 1.52h42.933c1.399 0 2.533-.681 2.533-1.52v-.16c0-.839-1.134-1.52-2.533-1.52zM45.467 26.667H2.534c-1.399 0-2.533.681-2.533 1.52v.16c0 .839 1.134 1.52 2.533 1.52h42.933c1.399 0 2.533-.681 2.533-1.52v-.16c0-.839-1.134-1.52-2.533-1.52zM45.467 0H2.534C1.135 0 .001.681.001 1.52v.16c0 .839 1.134 1.52 2.533 1.52h42.933C46.866 3.2 48 2.519 48 1.68v-.16C48 .681 46.866 0 45.467 0z" />
    </symbol>

    <symbol id="icon-icons-cross" viewBox="0 0 32 32">
<path fill="none" stroke="#86e543" style="stroke: var(--color1, #86e543)" stroke-linejoin="miter" stroke-linecap="round" stroke-miterlimit="4" stroke-width="3.5556" d="M29.629 30.222l-27.259-28.444M29.629 1.778l-27.259 28.444"></path>
</symbol>

    <!-- Modal -->
    <symbol id="icon-modal-close-cross" viewBox="0 0 32 32">
      <path stroke-linejoin="round" stroke-linecap="round" stroke-width="3.4286"
        d="M28.857 3.143 3.143 28.857m0-25.714 25.714 25.714" />
    </symbol>

    <!-- Social -->
    <symbol id="icon-social-instagram" viewBox="0 0 35 32">
      <path
        d="M34.299 2c0 1.105-.895 2-2 2s-2-.895-2-2 .895-2 2-2 2 .895 2 2zM18.299 30c-7.732 0-14-6.268-14-14s6.268-14 14-14 14 6.268 14 14-6.268 14-14 14zm.001-4.667c5.155 0 9.333-4.179 9.333-9.333S23.454 6.667 18.3 6.667c-5.155 0-9.333 4.179-9.333 9.333s4.179 9.333 9.333 9.333z" />
    </symbol>
    <symbol id="icon-social-youtube" viewBox="0 0 35 32">
      <path
        d="M30.801 5.972c1.377.352 2.461 1.388 2.829 2.703.669 2.384.669 7.358.669 7.358s0 4.974-.669 7.358c-.368 1.315-1.452 2.308-2.829 2.66-2.495.639-12.502.639-12.502.639s-10.007 0-12.502-.639c-1.377-.352-2.461-1.344-2.829-2.66-.669-2.384-.669-7.358-.669-7.358s0-4.974.669-7.358C3.336 7.36 4.42 6.324 5.797 5.972c2.496-.639 12.502-.639 12.502-.639s10.007 0 12.502.639zm-15.774 5.545v9.032l8.364-4.516-8.364-4.516z" />
    </symbol>
    <symbol id="icon-social-facebook" viewBox="0 0 35 32">
      <path
        d="M26.298 10.362h-5.903V7.041c0-1.247.964-1.538 1.642-1.538h4.166V.02L20.466.001c-6.369 0-7.818 4.09-7.818 6.707v3.655H8.965v5.65h3.683v15.988h7.747V16.013h5.227l.676-5.65z" />
    </symbol>
  </defs>
</svg>
