<svg fill="none" xmlns="http://www.w3.org/2000/svg" viewBox="0 0 32 32">
  <g clip-path="url(#a)">
    <path d="M8.33988 22.2561c-.54921 0-.98148-.1989-1.29681-.5965-.31495-.3977-.43208-.8947-.3514-1.4912l1.11529-7.9276c.11287-.812.47241-1.4998 1.07864-2.0632.60584-.56305 1.3047-.84459 2.0967-.84459h10.0359c.792 0 1.491.28154 2.0968.84459.6062.5634.9739 1.2512 1.1031 2.0632l1.0908 7.9276c.0807.5965-.0364 1.0935-.3514 1.4912-.3153.3976-.7476.5965-1.2968.5965-.2909 0-.5455-.0498-.7639-.1492-.2179-.0994-.4078-.2318-.5695-.3972l-2.4971-2.5601h-7.6598l-2.49706 2.5601c-.16173.1654-.35159.2978-.56957.3972-.21837.0994-.473.1492-.76389.1492ZM21.091 16.6892c.2261 0 .4282-.0871.6062-.2612.1776-.1738.2664-.385.2664-.6335 0-.2485-.0888-.4597-.2664-.6334-.178-.1742-.3801-.2613-.6062-.2613-.2425 0-.4484.0871-.6179.2613-.1699.1737-.2548.3849-.2548.6334 0 .2485.0849.4597.2548.6335.1695.1741.3754.2612.6179.2612Zm-2.0119-3.1064c.2424 0 .4525-.0871.6301-.2612.1776-.1738.2665-.385.2665-.6335 0-.2485-.0889-.4599-.2665-.634-.1776-.1738-.3877-.2607-.6301-.2607-.2265 0-.4286.0869-.6062.2607-.1776.1741-.2665.3855-.2665.634s.0889.4597.2665.6335c.1776.1741.3797.2612.6062.2612Zm-7.1758 2.9823h1.0426v-1.7894h1.7698v-1.0688h-1.7698v-1.7894h-1.0426v1.7894h-1.7454v1.0688h1.7454v1.7894Z" fill="#86E543"/>
    <path d="M31.5 16c0 8.5604-6.9396 15.5-15.5 15.5C7.43959 31.5.5 24.5604.5 16 .5 7.43959 7.43959.5 16 .5 24.5604.5 31.5 7.43959 31.5 16Z" stroke="#86E543"/>
  </g>
  <defs>
    <clipPath id="a">
      <path fill="#fff" d="M0 0h32v32H0z"/>
    </clipPath>
  </defs>
</svg>
